<svg width="64" height="64" viewBox="0 0 64 64" xmlns="http://www.w3.org/2000/svg" fill="#111318">
  <rect x="28.5" y="6" width="7" height="25" rx="3.5" transform="rotate(0 32 32)"/>
  <rect x="28.5" y="6" width="7" height="25" rx="3.5" transform="rotate(45 32 32)"/>
  <rect x="28.5" y="6" width="7" height="25" rx="3.5" transform="rotate(90 32 32)"/>
  <rect x="28.5" y="6" width="7" height="25" rx="3.5" transform="rotate(135 32 32)"/>
  <rect x="28.5" y="6" width="7" height="25" rx="3.5" transform="rotate(180 32 32)"/>
  <rect x="28.5" y="6" width="7" height="25" rx="3.5" transform="rotate(225 32 32)"/>
  <rect x="28.5" y="6" width="7" height="25" rx="3.5" transform="rotate(270 32 32)"/>
  <rect x="28.5" y="6" width="7" height="25" rx="3.5" transform="rotate(315 32 32)"/>
</svg>
